<svg xmlns="http://www.w3.org/2000/svg" width="256" height="256" viewBox="0 0 1024 1024">
  <defs>
    <linearGradient id="c" x1="0" y1="0" x2="0.3" y2="1"><stop offset="0" stop-color="#ff9f3d"/><stop offset="1" stop-color="#ef7611"/></linearGradient>
    <linearGradient id="sheet" x1="0" y1="0" x2="0" y2="1"><stop offset="0" stop-color="#ffffff"/><stop offset="1" stop-color="#eef0f3"/></linearGradient>
    <linearGradient id="foldg" x1="0" y1="0" x2="1" y2="1"><stop offset="0" stop-color="#d4d7df"/><stop offset="1" stop-color="#bcc0cb"/></linearGradient>
    <filter id="sh" x="-20%" y="-20%" width="140%" height="140%"><feDropShadow dx="0" dy="10" stdDeviation="18" flood-color="#1b2030" flood-opacity="0.22"/></filter>
  </defs>
  <path filter="url(#sh)" fill="url(#sheet)" d="M236 140 L660 140 L828 308 L828 844 Q828 884 788 884 L236 884 Q196 884 196 844 L196 180 Q196 140 236 140 Z"/>
  <path fill="url(#foldg)" d="M660 140 L828 308 L660 308 Z"/>
  <g transform="translate(512 524) scale(0.56) translate(-512 -512)"><path fill="url(#c)" fill-rule="evenodd" d="M 222.85,62.58 C 150.41,71.93 89.14,117.81 60.07,184.31 C 41.96,225.76 36.43,266.5 42.36,314.59 C 45.08,336.82 48.8,351.71 61.88,392.06 C 75.16,433.3 80.89,456.44 84.21,482.1 C 86.03,496.69 85.72,532.6 83.61,547.69 C 79.69,576.26 74.46,597.69 62.38,634.01 C 50.21,670.73 45.68,688.34 42.36,710.97 C 36.93,748.6 40.95,789.65 53.53,824.66 C 71.64,875.06 105.94,914.8 151.42,938.24 C 189.04,957.56 236.73,966.31 276.17,961.08 C 309.27,956.55 323.65,951.52 401.92,916.41 C 415.51,910.37 436.33,901.12 448.2,895.79 C 489.25,877.58 527.28,860.67 542.27,853.83 C 550.62,850.11 571.14,840.86 588.04,833.41 C 604.95,825.97 627.98,815.7 639.35,810.57 C 650.72,805.54 665.91,798.7 673.06,795.48 C 686.03,789.65 724.87,772.44 773.66,751.02 C 787.44,744.88 803.84,737.63 809.88,734.92 C 816.01,732.1 827.79,726.97 836.04,723.35 C 859.17,713.29 874.06,705.54 887.85,696.39 C 939.46,662.18 971.45,611.88 982.11,548.2 C 984.63,533 984.63,491.76 982.11,476.16 C 972.05,413.89 938.75,362.78 885.03,327.27 C 872.15,318.72 862.7,313.79 837.04,302.22 C 785.83,279.08 773.06,273.34 772.65,273.34 C 772.45,273.34 766.22,270.53 758.87,267.21 C 751.53,263.79 741.16,259.06 735.93,256.74 C 730.7,254.43 719.64,249.4 711.29,245.68 C 703.04,241.95 690.36,236.32 683.12,233.1 C 671.24,227.87 599.21,195.68 572.45,183.6 C 566.41,180.89 557.56,176.86 552.83,174.85 C 544.58,171.13 485.13,144.57 453.23,130.28 C 383.21,98.79 335.22,77.77 325.67,74.25 C 312.79,69.52 299.31,65.9 285.22,63.48 C 272.14,61.27 236.93,60.66 222.85,62.58 M 293.27,303.52 C 305.75,309.16 320.23,315.6 325.46,317.81 C 330.7,320.02 342.27,325.15 351.12,329.18 C 369.63,337.63 423.35,361.67 462.29,378.98 C 488.65,390.65 498.71,395.18 538.75,413.18 C 550.12,418.21 574.06,428.98 592.07,437.03 C 628.89,453.43 650.62,463.18 687.14,479.58 C 701.02,485.82 721.14,494.88 731.91,499.7 C 742.67,504.53 753.54,509.46 755.95,510.57 L 760.38,512.58 L 757.16,514.29 C 755.35,515.2 750.42,517.41 746.19,519.22 C 736.64,523.35 692.07,542.76 664.5,554.74 C 582.31,590.75 521.24,617.61 435.12,655.64 C 416.61,663.89 389.45,675.86 374.76,682.3 C 360.07,688.74 342.27,696.69 335.02,699.91 C 312.79,709.97 261.78,732.1 261.48,731.8 C 261.38,731.7 262.59,728.38 264.2,724.56 C 269.83,711.38 280.09,682.3 284.72,666.21 C 292.77,637.83 299.71,601.42 303.53,566.61 C 305.65,547.29 305.34,471.43 303.03,450.41 C 297.09,396.18 286.83,354.03 267.72,306.74 C 264.1,297.69 261.08,290.14 261.08,289.94 C 261.08,289.24 268.72,292.46 293.27,303.52"/></g>
</svg>
