<svg xmlns="http://www.w3.org/2000/svg" width="512" height="512" viewBox="0 0 1024 1024">
  <defs><linearGradient id="amber" x1="0" y1="0" x2="0.3" y2="1">
      <stop offset="0" stop-color="#ffc838"/>
      <stop offset="0.5" stop-color="#ffb300"/>
      <stop offset="1" stop-color="#f6a600"/>
    </linearGradient></defs>
  <path fill="url(#amber)" d="M1024 512 L1023.9 573.5 L1023.6 603.4 L1023.2 627.3 L1022.6 647.8 L1021.8 666.2 L1020.8 683 L1019.7 698.6 L1018.4 713.2 L1016.9 727 L1015.2 740.1 L1013.3 752.6 L1011.3 764.5 L1009.1 776 L1006.7 787 L1004.1 797.5 L1001.4 807.7 L998.4 817.6 L995.3 827.1 L992 836.3 L988.5 845.1 L984.9 853.7 L981 862.1 L977 870.1 L972.8 877.9 L968.3 885.5 L963.7 892.8 L958.9 899.9 L954 906.8 L948.8 913.4 L943.4 919.8 L937.8 926 L932 932 L926 937.8 L919.8 943.4 L913.4 948.8 L906.8 954 L899.9 958.9 L892.8 963.7 L885.5 968.3 L877.9 972.8 L870.1 977 L862.1 981 L853.7 984.9 L845.1 988.5 L836.3 992 L827.1 995.3 L817.6 998.4 L807.7 1001.4 L797.5 1004.1 L787 1006.7 L776 1009.1 L764.5 1011.3 L752.6 1013.3 L740.1 1015.2 L727 1016.9 L713.2 1018.4 L698.6 1019.7 L683 1020.8 L666.2 1021.8 L647.8 1022.6 L627.3 1023.2 L603.4 1023.6 L573.5 1023.9 L512 1024 L450.5 1023.9 L420.6 1023.6 L396.7 1023.2 L376.2 1022.6 L357.8 1021.8 L341 1020.8 L325.4 1019.7 L310.8 1018.4 L297 1016.9 L283.9 1015.2 L271.4 1013.3 L259.5 1011.3 L248 1009.1 L237 1006.7 L226.5 1004.1 L216.3 1001.4 L206.4 998.4 L196.9 995.3 L187.7 992 L178.9 988.5 L170.3 984.9 L161.9 981 L153.9 977 L146.1 972.8 L138.5 968.3 L131.2 963.7 L124.1 958.9 L117.2 954 L110.6 948.8 L104.2 943.4 L98 937.8 L92 932 L86.2 926 L80.6 919.8 L75.2 913.4 L70 906.8 L65.1 899.9 L60.3 892.8 L55.7 885.5 L51.2 877.9 L47 870.1 L43 862.1 L39.1 853.7 L35.5 845.1 L32 836.3 L28.7 827.1 L25.6 817.6 L22.6 807.7 L19.9 797.5 L17.3 787 L14.9 776 L12.7 764.5 L10.7 752.6 L8.8 740.1 L7.1 727 L5.6 713.2 L4.3 698.6 L3.2 683 L2.2 666.2 L1.4 647.8 L0.8 627.3 L0.4 603.4 L0.1 573.5 L0 512 L0.1 450.5 L0.4 420.6 L0.8 396.7 L1.4 376.2 L2.2 357.8 L3.2 341 L4.3 325.4 L5.6 310.8 L7.1 297 L8.8 283.9 L10.7 271.4 L12.7 259.5 L14.9 248 L17.3 237 L19.9 226.5 L22.6 216.3 L25.6 206.4 L28.7 196.9 L32 187.7 L35.5 178.9 L39.1 170.3 L43 161.9 L47 153.9 L51.2 146.1 L55.7 138.5 L60.3 131.2 L65.1 124.1 L70 117.2 L75.2 110.6 L80.6 104.2 L86.2 98 L92 92 L98 86.2 L104.2 80.6 L110.6 75.2 L117.2 70 L124.1 65.1 L131.2 60.3 L138.5 55.7 L146.1 51.2 L153.9 47 L161.9 43 L170.3 39.1 L178.9 35.5 L187.7 32 L196.9 28.7 L206.4 25.6 L216.3 22.6 L226.5 19.9 L237 17.3 L248 14.9 L259.5 12.7 L271.4 10.7 L283.9 8.8 L297 7.1 L310.8 5.6 L325.4 4.3 L341 3.2 L357.8 2.2 L376.2 1.4 L396.7 0.8 L420.6 0.4 L450.5 0.1 L512 0 L573.5 0.1 L603.4 0.4 L627.3 0.8 L647.8 1.4 L666.2 2.2 L683 3.2 L698.6 4.3 L713.2 5.6 L727 7.1 L740.1 8.8 L752.6 10.7 L764.5 12.7 L776 14.9 L787 17.3 L797.5 19.9 L807.7 22.6 L817.6 25.6 L827.1 28.7 L836.3 32 L845.1 35.5 L853.7 39.1 L862.1 43 L870.1 47 L877.9 51.2 L885.5 55.7 L892.8 60.3 L899.9 65.1 L906.8 70 L913.4 75.2 L919.8 80.6 L926 86.2 L932 92 L937.8 98 L943.4 104.2 L948.8 110.6 L954 117.2 L958.9 124.1 L963.7 131.2 L968.3 138.5 L972.8 146.1 L977 153.9 L981 161.9 L984.9 170.3 L988.5 178.9 L992 187.7 L995.3 196.9 L998.4 206.4 L1001.4 216.3 L1004.1 226.5 L1006.7 237 L1009.1 248 L1011.3 259.5 L1013.3 271.4 L1015.2 283.9 L1016.9 297 L1018.4 310.8 L1019.7 325.4 L1020.8 341 L1021.8 357.8 L1022.6 376.2 L1023.2 396.7 L1023.6 420.6 L1023.9 450.5 Z"/>
  <g transform="translate(512 512) scale(0.71) translate(-512 -512)">
    <path fill="#ffffff" fill-rule="evenodd" d="M 222.85,62.58 C 150.41,71.93 89.14,117.81 60.07,184.31 C 41.96,225.76 36.43,266.5 42.36,314.59 C 45.08,336.82 48.8,351.71 61.88,392.06 C 75.16,433.3 80.89,456.44 84.21,482.1 C 86.03,496.69 85.72,532.6 83.61,547.69 C 79.69,576.26 74.46,597.69 62.38,634.01 C 50.21,670.73 45.68,688.34 42.36,710.97 C 36.93,748.6 40.95,789.65 53.53,824.66 C 71.64,875.06 105.94,914.8 151.42,938.24 C 189.04,957.56 236.73,966.31 276.17,961.08 C 309.27,956.55 323.65,951.52 401.92,916.41 C 415.51,910.37 436.33,901.12 448.2,895.79 C 489.25,877.58 527.28,860.67 542.27,853.83 C 550.62,850.11 571.14,840.86 588.04,833.41 C 604.95,825.97 627.98,815.7 639.35,810.57 C 650.72,805.54 665.91,798.7 673.06,795.48 C 686.03,789.65 724.87,772.44 773.66,751.02 C 787.44,744.88 803.84,737.63 809.88,734.92 C 816.01,732.1 827.79,726.97 836.04,723.35 C 859.17,713.29 874.06,705.54 887.85,696.39 C 939.46,662.18 971.45,611.88 982.11,548.2 C 984.63,533 984.63,491.76 982.11,476.16 C 972.05,413.89 938.75,362.78 885.03,327.27 C 872.15,318.72 862.7,313.79 837.04,302.22 C 785.83,279.08 773.06,273.34 772.65,273.34 C 772.45,273.34 766.22,270.53 758.87,267.21 C 751.53,263.79 741.16,259.06 735.93,256.74 C 730.7,254.43 719.64,249.4 711.29,245.68 C 703.04,241.95 690.36,236.32 683.12,233.1 C 671.24,227.87 599.21,195.68 572.45,183.6 C 566.41,180.89 557.56,176.86 552.83,174.85 C 544.58,171.13 485.13,144.57 453.23,130.28 C 383.21,98.79 335.22,77.77 325.67,74.25 C 312.79,69.52 299.31,65.9 285.22,63.48 C 272.14,61.27 236.93,60.66 222.85,62.58 M 293.27,303.52 C 305.75,309.16 320.23,315.6 325.46,317.81 C 330.7,320.02 342.27,325.15 351.12,329.18 C 369.63,337.63 423.35,361.67 462.29,378.98 C 488.65,390.65 498.71,395.18 538.75,413.18 C 550.12,418.21 574.06,428.98 592.07,437.03 C 628.89,453.43 650.62,463.18 687.14,479.58 C 701.02,485.82 721.14,494.88 731.91,499.7 C 742.67,504.53 753.54,509.46 755.95,510.57 L 760.38,512.58 L 757.16,514.29 C 755.35,515.2 750.42,517.41 746.19,519.22 C 736.64,523.35 692.07,542.76 664.5,554.74 C 582.31,590.75 521.24,617.61 435.12,655.64 C 416.61,663.89 389.45,675.86 374.76,682.3 C 360.07,688.74 342.27,696.69 335.02,699.91 C 312.79,709.97 261.78,732.1 261.48,731.8 C 261.38,731.7 262.59,728.38 264.2,724.56 C 269.83,711.38 280.09,682.3 284.72,666.21 C 292.77,637.83 299.71,601.42 303.53,566.61 C 305.65,547.29 305.34,471.43 303.03,450.41 C 297.09,396.18 286.83,354.03 267.72,306.74 C 264.1,297.69 261.08,290.14 261.08,289.94 C 261.08,289.24 268.72,292.46 293.27,303.52"/>
  </g>
</svg>
